<svg width="408" height="400" viewBox="0 0 408 400" fill="none" xmlns="http://www.w3.org/2000/svg">
<path d="M287.567 322.265V298.401H303.482C310.717 298.401 316.142 300.932 316.142 305.995C316.142 310.695 310.355 312.503 304.929 312.503H297.333V322.265H287.567ZM300.588 309.249C304.206 309.249 306.014 307.802 306.014 305.633C306.014 303.102 303.844 301.656 300.227 301.656H297.333V309.249H300.588Z" fill="#9EA1A2"/>
<path d="M321.568 298.398H331.335V319.008H343.995V322.262H321.568V298.398Z" fill="#9EA1A2"/>
<path d="M376.55 298.398V315.03C376.55 319.008 372.933 322.985 362.443 322.985C353.762 322.985 348.698 319.008 348.698 314.669V298.398H358.464V314.307C358.464 317.2 360.634 319.008 364.975 319.008C369.315 319.008 371.486 317.2 371.486 314.307V298.398H376.55Z" fill="#9EA1A2"/>
<path d="M387.401 316.115C388.486 317.923 390.657 319.731 393.912 319.731C396.806 319.731 398.253 318.646 398.253 316.838C398.253 312.499 383.061 313.584 383.061 305.991C383.061 301.29 388.125 298.036 394.997 298.036C400.423 298.036 404.04 299.483 406.572 302.737L402.593 304.906C401.147 303.098 399.338 301.29 396.082 301.29C393.189 301.29 392.104 302.375 392.104 304.183C392.104 308.16 407.657 307.076 407.657 315.03C407.657 320.092 402.232 322.985 394.997 322.985C389.21 322.985 385.231 321.539 382.337 318.284L387.401 316.115Z" fill="#9EA1A2"/>
<path d="M20.6179 325.516H36.1718L52.8109 342.871V325.516H60.407V359.865H52.4492L28.214 334.555V359.865H20.6179V325.516Z" fill="#8B181C"/>
<path d="M67.6415 325.516H89.7063C105.26 325.516 116.835 332.747 116.835 343.233C116.835 354.08 105.622 359.865 92.2384 359.865H67.6415V325.516ZM86.8126 355.527C97.3024 355.527 101.281 348.657 101.281 342.148C101.281 335.64 95.8556 330.216 86.0891 330.216H81.3868V355.888H86.8126V355.527Z" fill="#8B181C"/>
<path d="M122.984 325.516H137.091V359.865H122.984V325.516Z" fill="#8B181C"/>
<path d="M0 325.516H14.107V359.866H0V325.516Z" fill="#8B181C"/>
<path d="M186.647 335.64C182.668 332.024 179.774 328.77 172.178 328.77C161.688 328.77 159.156 336.363 159.156 342.51C159.156 348.657 161.688 356.25 172.178 356.25C180.859 356.25 184.838 353.357 188.094 349.018L193.881 351.911C189.179 358.419 181.583 360.95 170.731 360.95C155.177 360.95 143.602 353.357 143.602 342.871C143.602 332.386 154.816 324.793 170.731 324.793C181.945 324.793 187.009 326.962 192.796 332.747L186.647 335.64Z" fill="#8B181C"/>
<path d="M194.243 359.865L211.606 325.516H225.713L244.522 359.865H228.968L223.542 350.103H206.18L201.478 359.865H194.243ZM208.712 345.402H221.01L214.499 333.47L208.712 345.402Z" fill="#8B181C"/>
<path d="M238.735 325.516H279.971V330.216H266.587V359.865H252.48V330.216H238.735V325.516Z" fill="#8B181C"/>
<path d="M287.205 325.516H301.312V359.865H287.205V325.516Z" fill="#8B181C"/>
<path d="M334.228 324.793C349.421 324.793 360.996 332.747 360.996 342.871C360.996 352.995 349.421 360.95 334.228 360.95C319.036 360.95 307.461 352.995 307.461 342.871C307.461 332.747 319.398 324.793 334.228 324.793ZM334.228 356.611C343.995 356.611 345.442 347.933 345.442 342.51C345.442 337.448 343.633 328.408 334.228 328.408C324.462 328.408 323.015 337.086 323.015 342.51C323.015 347.933 324.462 356.611 334.228 356.611Z" fill="#8B181C"/>
<path d="M367.145 325.516H382.699L399.338 342.871V325.516H406.934V359.865H398.615L374.379 334.555V359.865H366.783V325.516H367.145Z" fill="#8B181C"/>
<path d="M111.882 102.663L111.39 285.394L65.6891 285.886L66.1805 103.646L111.882 102.663Z" fill="#9EA1A2"/>
<path d="M111.882 102.663L118.27 114.452L117.779 297.183L111.39 285.394L111.882 102.663Z" fill="#666767"/>
<path d="M111.39 285.394L117.778 297.183L72.5688 297.675L65.6891 285.886L111.39 285.394Z" fill="#4F5050"/>
<path d="M168.393 55.507L167.902 237.747L122.201 238.729L122.692 55.9982L168.393 55.507Z" fill="#9EA1A2"/>
<path d="M168.393 55.507L174.782 67.2961L174.29 249.536L167.902 237.747L168.393 55.507Z" fill="#666767"/>
<path d="M167.902 237.747L174.29 249.536L129.081 250.518L122.201 238.729L167.902 237.747Z" fill="#4F5050"/>
<path d="M224.905 0.98241L224.414 183.713L178.713 184.205L179.204 1.96483L224.905 0.98241Z" fill="#9EA1A2"/>
<path d="M224.906 0.98241L231.294 12.7715L230.802 195.503L224.414 183.713L224.906 0.98241Z" fill="#666767"/>
<path d="M224.414 183.713L230.802 195.502L185.593 195.994L178.713 184.205L224.414 183.713Z" fill="#4F5050"/>
<path d="M282.4 0V44.2091L238.665 44.7003V0.982425L282.4 0Z" fill="#8B181C"/>
<path d="M282.4 0L289.28 11.7891L288.788 55.9982L282.4 44.2091V0Z" fill="#561315"/>
<path d="M282.4 44.2091L288.788 55.9982L245.053 56.4894L238.665 44.7003L282.4 44.2091Z" fill="#421313"/>
<path d="M282.4 61.4015L281.909 211.713L238.174 212.695L238.665 61.8928L282.4 61.4015Z" fill="#8B181C"/>
<path d="M282.4 61.4015L288.789 73.1906L288.297 223.502L281.909 211.712L282.4 61.4015Z" fill="#561315"/>
<path d="M281.909 211.712L288.297 223.502L244.562 224.484L238.174 212.695L281.909 211.712Z" fill="#421313"/>
<path d="M54.9816 387.71L61.8542 398.919H58.5987L56.7901 396.026H51.3644L49.5558 398.919H48.1089L54.9816 387.71ZM56.4284 395.303L54.2581 391.326L52.0878 395.303H56.4284Z" fill="#9EA1A2"/>
<path d="M69.4504 388.068H72.7059L77.0465 395.661L81.0254 388.068H82.4723L75.9614 399.277L69.4504 388.068Z" fill="#9EA1A2"/>
<path d="M88.2596 388.791H83.9189V388.068H95.494V388.791H91.1533V398.915H88.2596V388.791Z" fill="#9EA1A2"/>
<path d="M97.3025 388.068H102.728H103.813C104.175 388.068 104.537 388.068 104.899 388.068C105.622 388.068 105.984 388.43 106.707 388.43C107.431 388.43 107.792 388.791 108.154 389.514C108.516 389.876 108.516 390.599 108.516 390.961C108.516 392.045 108.154 392.407 107.431 393.13C106.707 393.492 105.622 393.853 104.175 393.853L108.516 398.915H105.26L100.92 393.13C102.005 393.13 103.09 392.768 104.175 392.768C105.26 392.407 105.622 392.045 105.622 390.961C105.622 390.237 104.899 389.514 103.813 389.153C102.728 388.791 102.005 388.791 100.92 388.791H100.558H100.196V399.277H97.3025V388.068Z" fill="#9EA1A2"/>
<path d="M113.58 388.068V394.938V395.661V396.384V397.107L113.942 397.831C114.303 398.554 115.389 398.915 116.836 398.915C118.282 398.915 119.368 398.554 119.729 397.831C120.091 397.107 120.453 396.384 120.453 395.3V388.43H121.9V395.661C121.9 397.107 121.538 397.831 120.453 398.915C119.729 399.638 118.282 400 116.112 400H115.75H115.389C114.665 400 114.303 400 113.58 399.638C112.857 399.638 112.495 399.277 111.771 398.915C111.41 398.554 111.048 398.192 110.686 397.831L110.325 397.107V396.384V396.023V395.661V388.43H113.58V388.068Z" fill="#9EA1A2"/>
<path d="M126.24 397.469L126.964 397.831L127.687 398.192H128.411C129.134 398.192 129.858 397.831 130.581 397.469C131.304 397.107 131.666 396.746 131.666 396.023V395.661V395.3C131.304 394.938 130.943 394.576 130.581 394.215L129.858 393.853L128.772 393.492H128.049H127.687C126.964 393.13 126.24 392.769 125.517 392.407C124.793 392.045 124.793 391.322 124.793 390.599C124.793 389.514 125.155 388.791 126.24 388.068C127.326 387.345 128.411 387.345 129.858 387.345H130.219C131.304 387.345 132.028 387.345 132.751 387.706C133.475 388.068 134.198 388.43 134.56 389.153L133.475 389.514C133.113 389.153 132.751 388.791 132.39 388.43C132.028 388.068 131.304 388.068 130.581 388.068H130.219C129.496 388.068 128.772 388.068 128.411 388.43C128.049 388.791 127.687 389.153 127.687 389.514V389.876V390.237C127.687 390.599 128.049 390.961 128.772 391.322L129.496 391.684L130.581 392.045H130.943H131.304C132.39 392.407 133.113 392.769 133.836 393.13C134.56 393.492 134.922 394.215 134.922 394.938C134.922 395.3 134.922 395.661 134.922 396.023C134.922 396.384 134.56 396.746 134.56 396.746C134.198 397.469 133.475 397.831 132.39 398.192L130.943 398.554H129.496C128.411 398.554 127.687 398.554 126.602 398.192C125.879 397.831 125.155 397.469 124.432 396.746L125.517 396.023L126.24 397.469Z" fill="#9EA1A2"/>
<path d="M140.709 388.791H136.368V388.068H147.943V388.791H143.603V398.915H140.709V388.791Z" fill="#9EA1A2"/>
<path d="M162.05 387.707L168.923 398.915H165.668L163.859 396.023H158.433L156.625 398.915H155.178L162.05 387.707ZM163.497 395.3L160.965 391.322L158.795 395.3H163.497Z" fill="#9EA1A2"/>
<path d="M170.732 388.068H176.519C177.966 388.068 179.413 388.43 180.498 388.791C181.583 389.153 182.307 390.237 182.307 391.322C182.307 392.407 181.945 393.13 180.86 393.853C179.775 394.576 178.689 394.576 177.243 394.576H173.625V399.277H170.732V388.068ZM173.625 393.853H173.987H174.349C175.434 393.853 176.519 393.853 177.243 393.492C178.328 393.13 178.689 392.407 178.689 391.322C178.689 390.237 177.966 389.514 176.881 389.153C175.796 388.791 174.71 388.791 173.264 388.791V393.853H173.625Z" fill="#9EA1A2"/>
<path d="M183.754 388.068H189.541C190.988 388.068 192.435 388.43 193.52 388.791C194.605 389.153 195.329 390.237 195.329 391.322C195.329 392.407 194.967 393.13 193.882 393.853C192.797 394.576 191.711 394.576 190.265 394.576H187.009V399.277H184.115V388.068H183.754ZM186.647 393.853H187.009H187.371C188.456 393.853 189.541 393.853 190.265 393.492C191.35 393.13 191.711 392.407 191.711 391.322C191.711 390.237 190.988 389.514 189.903 389.153C188.818 388.791 187.733 388.791 186.286 388.791V393.853H186.647Z" fill="#9EA1A2"/>
<path d="M196.775 388.068H202.201H203.286C203.648 388.068 204.01 388.068 204.371 388.068C205.095 388.068 205.457 388.43 206.18 388.43C206.903 388.43 207.265 388.791 207.627 389.514C207.989 389.876 207.989 390.599 207.989 390.961C207.989 392.045 207.627 392.407 206.903 393.13C206.18 393.492 205.095 393.853 203.648 393.853L207.989 398.915H204.733L200.392 393.13C201.478 393.13 202.563 392.768 203.648 392.768C204.733 392.407 205.095 392.045 205.095 390.961C205.095 390.237 204.371 389.514 203.286 389.153C202.201 388.791 201.478 388.791 200.392 388.791H200.031H199.669V399.277H196.775V388.068Z" fill="#9EA1A2"/>
<path d="M216.67 387.707L223.542 398.915H220.287L218.478 396.023H213.052L211.244 398.915H209.797L216.67 387.707ZM218.478 395.3L215.946 391.322L213.776 395.3H218.478Z" fill="#9EA1A2"/>
<path d="M225.713 398.915V387.707H228.607V398.915H225.713Z" fill="#9EA1A2"/>
<path d="M232.586 397.469L233.309 397.831L234.033 398.192H234.756C235.479 398.192 236.203 397.831 236.926 397.469C237.65 397.107 238.012 396.746 238.012 396.023V395.661V395.3C237.65 394.938 237.288 394.576 236.926 394.215L236.203 393.853L235.118 394.215H234.394H234.033C233.309 393.853 232.586 393.492 231.862 393.13C231.139 392.768 231.139 392.045 231.139 391.322C231.139 390.237 231.501 389.514 232.586 388.791C233.671 388.068 234.756 388.068 236.203 388.068H236.565C237.65 388.068 238.373 388.068 239.097 388.43C239.82 388.791 240.544 389.153 240.905 389.876L239.82 390.237C239.458 389.876 239.097 389.514 238.735 389.153C238.373 388.791 237.65 388.791 236.926 388.791H236.565C235.841 388.791 235.118 388.791 234.756 389.153C234.394 389.514 234.033 389.876 234.033 390.237V390.599V390.961C234.033 391.322 234.394 391.684 235.118 392.045L235.841 392.407L236.926 392.768H237.288H237.65C238.735 393.13 239.458 393.492 240.182 393.853C240.905 394.215 241.267 394.938 241.267 395.661C241.267 396.023 241.267 396.384 241.267 396.746C241.267 397.107 240.905 397.469 240.905 397.469C240.544 398.192 239.82 398.554 238.735 398.915L237.288 399.277H235.841C234.756 399.277 234.033 399.277 232.947 398.915C232.224 398.554 231.501 398.192 230.777 397.469L231.862 396.746L232.586 397.469Z" fill="#9EA1A2"/>
<path d="M249.587 387.707L256.459 398.915H253.204L251.395 396.023H245.969L244.161 398.915H242.714L249.587 387.707ZM251.033 395.3L248.501 391.322L246.331 395.3H251.033Z" fill="#9EA1A2"/>
<path d="M268.396 398.915H258.268V387.707H261.162V397.831H268.034V398.915H268.396Z" fill="#9EA1A2"/>
<path d="M277.801 397.469L278.524 397.831L279.247 398.192H279.971C280.694 398.192 281.418 397.831 282.141 397.469C282.865 397.107 283.226 396.746 283.226 396.023V395.661V395.3C282.865 394.938 282.503 394.576 282.141 394.215L281.418 393.853L280.333 393.492H279.609H279.247C278.524 393.13 277.801 392.769 277.077 392.407C276.354 392.045 276.354 391.322 276.354 390.599C276.354 389.514 276.715 388.791 277.801 388.068C278.886 387.345 279.971 387.345 281.418 387.345H281.779C282.865 387.345 283.588 387.345 284.311 387.706C285.035 388.068 285.758 388.43 286.12 389.153L285.035 389.514C284.673 389.153 284.311 388.791 283.95 388.43C283.588 388.068 282.865 388.068 282.141 388.068H281.779C281.056 388.068 280.333 388.068 279.971 388.43C279.609 388.791 279.247 389.153 279.247 389.514V389.876V390.237C279.247 390.599 279.609 390.961 280.333 391.322L281.056 391.684L282.141 392.045H282.503H282.865C283.95 392.407 284.673 392.769 285.397 393.13C286.12 393.492 286.482 394.215 286.482 394.938C286.482 395.3 286.482 395.661 286.482 396.023C286.482 396.384 286.12 396.746 286.12 396.746C285.758 397.469 285.035 397.831 283.95 398.192L282.503 398.554H281.056C279.971 398.554 279.247 398.554 278.162 398.192C277.439 397.831 276.715 397.469 275.992 396.746L277.077 396.023L277.801 397.469Z" fill="#9EA1A2"/>
<path d="M288.652 388.068H298.78V388.791H291.907V392.768H298.418V393.492H291.907V398.192H298.78V398.915H288.652V388.068Z" fill="#9EA1A2"/>
<path d="M300.589 388.068H306.015H307.1C307.462 388.068 307.823 388.068 308.185 388.068C308.908 388.068 309.27 388.43 309.994 388.43C310.717 388.43 311.079 388.791 311.441 389.514C311.802 389.876 311.802 390.599 311.802 390.961C311.802 392.045 311.441 392.407 310.717 393.13C309.994 393.492 308.909 393.853 307.462 393.853L311.802 398.915H308.547L304.206 393.13C305.291 393.13 306.376 392.768 307.462 392.768C308.547 392.407 308.909 392.045 308.909 390.961C308.909 390.237 308.185 389.514 307.1 389.153C306.015 388.791 305.291 388.791 304.206 388.791H303.844V399.277H300.951V388.068H300.589Z" fill="#9EA1A2"/>
<path d="M313.611 388.068H316.866L321.207 395.661L325.186 388.068H326.633L320.122 399.277L313.611 388.068Z" fill="#9EA1A2"/>
<path d="M328.441 398.915V387.707H331.335V398.915H328.441Z" fill="#9EA1A2"/>
<path d="M345.08 398.554C343.995 398.915 342.548 399.277 341.463 399.277C339.655 399.277 337.846 398.915 336.399 397.831C334.952 396.746 333.867 395.661 333.505 394.215C333.505 393.13 333.505 392.407 333.867 391.322C334.229 390.599 334.591 389.876 335.676 389.153C336.399 388.43 337.484 388.068 338.208 387.706C338.931 387.345 340.016 387.345 341.101 387.345C342.187 387.345 343.272 387.345 344.357 387.706C345.442 388.068 346.166 388.791 346.889 389.514L345.804 389.876C345.442 389.514 344.719 388.791 343.995 388.43C343.272 388.068 342.187 387.706 341.101 387.706C339.655 387.706 338.208 388.068 337.484 388.791C336.761 389.514 336.399 390.599 336.037 391.684V392.407V393.13V393.492V393.853C336.037 394.938 336.399 395.661 337.123 396.384C337.846 397.107 338.931 397.469 340.378 397.831C341.101 397.831 341.463 397.831 342.187 397.831C342.548 397.831 343.272 397.469 343.634 397.469C344.357 397.107 345.08 396.384 345.804 395.661L346.889 396.023C347.251 397.469 346.166 398.192 345.08 398.554Z" fill="#9EA1A2"/>
<path d="M349.782 388.068H359.911V388.791H353.038V392.768H359.549V393.492H353.038V398.192H359.911V398.915H349.782V388.068Z" fill="#9EA1A2"/>
<path d="M407.296 373.244H0V374.328H407.296V373.244Z" fill="#8B181C"/>
</svg>
