<svg xmlns="http://www.w3.org/2000/svg" version="1.1" xmlns:xlink="http://www.w3.org/1999/xlink" xmlns:svgjs="http://svgjs.com/svgjs" width="512" height="512" x="0" y="0" viewBox="0 0 512 512" style="enable-background:new 0 0 512 512" xml:space="preserve" class=""><g transform="matrix(1.4999999999999993,0,0,1.4999999999999993,-128.0250015258788,-128.0249938964842)"><linearGradient id="a" x1="116.1" x2="395.9" y1="257.15" y2="257.15" gradientTransform="matrix(1 0 0 -1 0 513.15)" gradientUnits="userSpaceOnUse"><stop offset="0" stop-color="#fcac6b"></stop><stop offset="1" stop-color="#f33"></stop></linearGradient><path fill="url(#a)" d="M254.7 259.8c-22.1 0-36.4 15.3-36.4 36.9s14.4 36.9 36.4 36.9c22.5 0 36.9-15.3 36.9-36.9s-14.4-36.9-36.9-36.9zm0 60.8c-14.5 0-23.4-9.2-23.4-23.9s9-23.9 23.4-23.9c15 0 23.9 8.9 23.9 23.9s-9 23.9-23.9 23.9zm26.1-238v91.7c-13.6-6.8-28.9-10.2-45.9-10.2-37.3 0-68.4 14.6-89.9 42.2-18.6 23.8-28.8 55.9-28.8 90.5s10.2 66.7 28.8 90.5c21.6 27.6 52.7 42.2 90 42.2 16.8 0 32.3-3.7 45.9-10.8v5h115v-341H280.8zm102.1 328h-89.1V393c-13.9 14-33.3 23.4-58.9 23.4-71.6 0-105.8-59.4-105.8-119.7S163.3 177 234.9 177c25.2 0 44.6 8.6 58.9 22V95.6h89.1z" data-original="url(#a)" class=""></path></g></svg>