<svg xmlns="http://www.w3.org/2000/svg" version="1.1" xmlns:xlink="http://www.w3.org/1999/xlink" xmlns:svgjs="http://svgjs.com/svgjs" width="512" height="512" x="0" y="0" viewBox="0 0 512 512" style="enable-background:new 0 0 512 512" xml:space="preserve" class=""><g><g fill-rule="evenodd" clip-rule="evenodd"><path fill="#5490f2" d="M143.984 216A103.98 103.98 0 0 0 40 319.984V488c0 13.256 10.744 24 24 24h208c13.256 0 24-10.744 24-24 0 0-1.056-183.008-1.448-185.336a104.02 104.02 0 0 0-29.008-56.208A103.98 103.98 0 0 0 192.016 216H192c-4.416.008-7.984 3.584-7.984 8s-.016 4.416-.016 0v16c0 8.84-7.16 16-16 16a16.005 16.005 0 0 1-16-16v-16s1.328-8-8-8z" data-original="#5490f2"></path><path fill="#ffd47f" d="M168 200c-7.48 0-14.656-1.28-21.336-3.64a8.003 8.003 0 0 0-7.28 1.008 8.014 8.014 0 0 0-3.384 6.536V240a31.963 31.963 0 0 0 9.376 22.624A31.963 31.963 0 0 0 168 272c17.672 0 32-14.328 32-32v-36.096c0-2.6-1.264-5.032-3.384-6.536a8.003 8.003 0 0 0-7.28-1.008A63.905 63.905 0 0 1 168 200z" data-original="#ffd47f"></path><path fill="#404040" d="M272 61.928c0-33.136-26.864-60-60-60h-88c-33.136 0-60 26.864-60 60v54.016c0 2.84 208 2.84 208 0z" data-original="#404040" class=""></path><path fill="#fbea99" d="m167.998 216.004 1.034-.013c43.71-.552 78.964-36.156 78.964-79.988V67.7a19.648 19.648 0 0 0-5.773-13.931 19.67 19.67 0 0 0-13.916-5.77H107.688a19.672 19.672 0 0 0-13.916 5.77A19.65 19.65 0 0 0 88 67.7v68.304c0 44.186 35.817 80 79.998 80z" data-original="#fbea99" class=""></path><circle cx="168" cy="120" r="8" fill="#404040" data-original="#404040" class=""></circle><circle cx="200" cy="120" r="8" fill="#404040" data-original="#404040" class=""></circle><path fill="#404040" d="m158.528 105.592 12-4c4.192-1.4 6.459-5.936 5.061-10.12a8.006 8.006 0 0 0-10.117-5.064l-12 4c-4.192 1.4-6.459 5.936-5.061 10.12a8.005 8.005 0 0 0 10.117 5.064zM214.528 90.408l-12-4a8.005 8.005 0 0 0-10.117 5.064c-1.397 4.184.869 8.72 5.061 10.12l12 4a8.005 8.005 0 0 0 10.117-5.064c1.398-4.184-.869-8.72-5.061-10.12z" data-original="#404040" class=""></path><path fill="#fbea99" d="M56 120c0 13.256 10.744 24 24 24h16c4.416 0 8-3.584 8-8v-32c0-4.416-3.584-8-8-8H80c-13.256 0-24 10.744-24 24zM240 96c-4.416 0-8 3.584-8 8v32c0 4.416 3.584 8 8 8h16c13.256 0 24-10.744 24-24s-10.744-24-24-24z" data-original="#fbea99" class=""></path><g fill="#d3433a"><path d="M378.854 248.94c5.143-1.953 11.191-.87 15.332 3.272 3.122 3.122 8.19 3.122 11.312 0s3.122-8.19 0-11.312c-8.737-8.737-21.489-11.041-32.341-6.906-4.13 1.572-6.203 6.203-4.631 10.321 1.573 4.129 6.204 6.203 10.328 4.625z" fill="#d3433a" data-original="#d3433a"></path><path d="M342.13 233.322c23.102-23.102 60.632-23.102 83.735 0a7.977 7.977 0 0 0 11.3 0 7.978 7.978 0 0 0 0-11.3c-29.34-29.34-76.996-29.34-106.336 0a7.978 7.978 0 0 0 0 11.3 7.978 7.978 0 0 0 11.301 0z" fill="#d3433a" data-original="#d3433a"></path><path d="M310.409 214.471c40.577-40.577 106.525-40.577 147.103 0 3.11 3.11 8.179 3.11 11.289 0s3.111-8.179 0-11.289c-46.826-46.826-122.855-46.826-169.681 0-3.11 3.11-3.111 8.179 0 11.289 3.11 3.11 8.179 3.11 11.289 0z" fill="#d3433a" data-original="#d3433a"></path><path d="M417.189 155.809 353.182 259.81a8.005 8.005 0 0 0 2.625 11.008c3.756 2.308 8.695 1.137 11.008-2.625l63.996-104.001c2.314-3.762 1.143-8.689-2.619-11.003-3.762-2.313-8.689-1.142-11.003 2.62z" fill="#d3433a" data-original="#d3433a"></path><circle cx="384" cy="272" r="8" fill="#d3433a" data-original="#d3433a"></circle></g><path fill="#6337b0" d="M142.632 432c-2.6 0-22.632 48-22.632 48h272a7.986 7.986 0 0 0 7.472-5.152l12.192-32a7.985 7.985 0 0 0-.888-7.384 7.986 7.986 0 0 0-6.584-3.464z" data-original="#6337b0"></path><path fill="#f0b638" d="M188.392 480H400l71.472-173.152a7.962 7.962 0 0 0-.888-7.384A7.986 7.986 0 0 0 464 296H264a7.986 7.986 0 0 0-7.472 5.152z" data-original="#f0b638"></path><circle cx="120" cy="448" r="32" fill="#fbea99" data-original="#fbea99" class=""></circle><circle cx="400" cy="448" r="32" fill="#fbea99" data-original="#fbea99" class=""></circle></g></g></svg>