<svg xmlns="http://www.w3.org/2000/svg" xmlns:xlink="http://www.w3.org/1999/xlink" width="40" zoomAndPan="magnify" viewBox="0 0 30 30.000001" height="40" preserveAspectRatio="xMidYMid meet" version="1.0"><defs><g/><clipPath id="228b6a4130"><path d="M 22.441406 21.449219 L 27.917969 21.449219 L 27.917969 26.925781 L 22.441406 26.925781 Z M 22.441406 21.449219 " clip-rule="nonzero"/></clipPath><clipPath id="7403153f4b"><path d="M 23.164062 21.449219 L 27.195312 21.449219 C 27.386719 21.449219 27.570312 21.523438 27.707031 21.660156 C 27.84375 21.796875 27.917969 21.980469 27.917969 22.175781 L 27.917969 26.203125 C 27.917969 26.394531 27.84375 26.578125 27.707031 26.714844 C 27.570312 26.851562 27.386719 26.925781 27.195312 26.925781 L 23.164062 26.925781 C 22.972656 26.925781 22.789062 26.851562 22.652344 26.714844 C 22.515625 26.578125 22.441406 26.394531 22.441406 26.203125 L 22.441406 22.175781 C 22.441406 21.980469 22.515625 21.796875 22.652344 21.660156 C 22.789062 21.523438 22.972656 21.449219 23.164062 21.449219 " clip-rule="nonzero"/></clipPath></defs><g clip-path="url(#228b6a4130)"><g clip-path="url(#7403153f4b)"><path fill="#ff4c60" d="M 22.441406 21.449219 L 27.917969 21.449219 L 27.917969 26.925781 L 22.441406 26.925781 Z M 22.441406 21.449219 " fill-opacity="1" fill-rule="nonzero"/></g></g><g fill="#282642" fill-opacity="1"><g transform="translate(0.854059, 26.921745)"><g><path d="M 20.03125 -0.9375 C 20.082031 -0.820312 20.109375 -0.695312 20.109375 -0.5625 C 20.109375 -0.4375 20.046875 -0.3125 19.921875 -0.1875 C 19.804688 -0.0625 19.664062 0 19.5 0 L 13.703125 0 C 13.117188 0 12.710938 -0.253906 12.484375 -0.765625 L 10.0625 -6.15625 L 8.90625 -6.15625 L 8.90625 -0.765625 C 8.90625 -0.554688 8.828125 -0.375 8.671875 -0.21875 C 8.523438 -0.0703125 8.347656 0 8.140625 0 L 2.59375 0 C 2.382812 0 2.207031 -0.0703125 2.0625 -0.21875 C 1.914062 -0.375 1.84375 -0.554688 1.84375 -0.765625 L 1.84375 -19.015625 C 1.84375 -19.222656 1.914062 -19.398438 2.0625 -19.546875 C 2.207031 -19.703125 2.382812 -19.78125 2.59375 -19.78125 L 10.96875 -19.78125 C 13.675781 -19.78125 15.789062 -19.171875 17.3125 -17.953125 C 18.84375 -16.734375 19.609375 -14.988281 19.609375 -12.71875 C 19.609375 -10.457031 18.585938 -8.675781 16.546875 -7.375 Z M 8.90625 -14.515625 L 8.90625 -11.53125 L 10.96875 -11.53125 C 11.375 -11.53125 11.691406 -11.664062 11.921875 -11.9375 C 12.148438 -12.207031 12.265625 -12.550781 12.265625 -12.96875 C 12.265625 -13.382812 12.15625 -13.742188 11.9375 -14.046875 C 11.71875 -14.359375 11.394531 -14.515625 10.96875 -14.515625 Z M 8.90625 -14.515625 "/></g></g>
</g>
</svg>